<svg xmlns="http://www.w3.org/2000/svg" xmlns:xlink="http://www.w3.org/1999/xlink" width="81.485" height="81.485" viewBox="0 0 81.485 81.485"><defs><style>.a{fill:url(#a);}</style><linearGradient id="a" x1="-0.034" y1="0.091" x2="1.054" y2="1.122" gradientUnits="objectBoundingBox"><stop offset="0" stop-color="#7e76f9"/><stop offset="1" stop-color="#b2adfc"/></linearGradient></defs><path class="a" d="M308.8,295.362v-9.926l-3.8-.972c-.026-.064-.053-.128-.08-.192l2-3.374L299.9,273.88l-3.374,2-.192-.08-.972-3.8h-9.926l-.972,3.8c-.064.026-.128.053-.192.08l-3.374-2L273.88,280.9l2,3.374c-.028.065-.054.129-.08.192l-3.8.972v9.926l3.8.972c.026.064.053.128.08.192l-2,3.374,7.019,7.019,3.374-2,.192.08.972,3.8h9.926l.972-3.8c.064-.026.128-.053.192-.08l3.374,2,7.019-7.019-2-3.374c.028-.065.054-.129.08-.192Zm-5.182,4.123-4.132,4.132-2.809-1.667-.632.3a13.167,13.167,0,0,1-1.253.519l-.662.235-.807,3.164h-5.845l-.807-3.164-.662-.235a12.4,12.4,0,0,1-1.253-.519l-.632-.3-2.809,1.667-4.132-4.132,1.667-2.809-.3-.632a13.159,13.159,0,0,1-.519-1.253l-.235-.662-3.165-.807v-5.845l3.164-.807.235-.662a12.393,12.393,0,0,1,.519-1.253l.3-.632-1.667-2.809,4.132-4.132,2.809,1.667.632-.3a13.163,13.163,0,0,1,1.253-.519l.662-.235.807-3.165h5.845l.807,3.164.662.235a12.394,12.394,0,0,1,1.253.519l.632.3,2.809-1.667,4.132,4.132-1.667,2.809.3.632a13.163,13.163,0,0,1,.519,1.253l.235.662,3.165.807v5.845l-3.164.807-.235.662a12.4,12.4,0,0,1-.519,1.253l-.3.632Zm0,0" transform="translate(-227.315 -227.315)"/><path class="a" d="M330.514,320a10.514,10.514,0,1,0,10.514,10.514A10.526,10.526,0,0,0,330.514,320Zm0,18.4a7.886,7.886,0,1,1,7.886-7.886A7.893,7.893,0,0,1,330.514,338.4Zm0,0" transform="translate(-267.429 -267.429)"/><path class="a" d="M357.257,352a5.257,5.257,0,1,0,5.257,5.257A5.262,5.262,0,0,0,357.257,352Zm0,7.886a2.629,2.629,0,1,1,2.629-2.629A2.631,2.631,0,0,1,357.257,359.886Zm0,0" transform="translate(-294.172 -294.172)"/><path class="a" d="M160.313,22.253a7.9,7.9,0,0,0,2.2,3.322V26.69l-6.249,2.343A6.6,6.6,0,0,0,152,35.186v6.871h31.542V35.186a6.6,6.6,0,0,0-4.264-6.154l-6.25-2.343V25.576a7.883,7.883,0,0,0,2.2-3.322,5.255,5.255,0,0,0,4.37-5.168V11.828a11.828,11.828,0,0,0-23.657,0v5.257A5.255,5.255,0,0,0,160.313,22.253ZM170.4,27.236l-2.629,4.38-2.629-4.38v-.1a7.738,7.738,0,0,0,5.257,0Zm-7.135,1.979,2.65,4.414-2.632,1.316-1.7-5.1Zm17.65,5.971v4.243H154.629V35.186a3.961,3.961,0,0,1,2.559-3.692l1.932-.724,2.627,7.883,6.025-3.012,6.025,3.012,2.627-7.883,1.934.725a3.958,3.958,0,0,1,2.557,3.691Zm-6.953-5.34-1.7,5.1-2.632-1.316,2.65-4.416Zm-6.19-4.875a5.262,5.262,0,0,1-5.257-5.257V14.368a10.174,10.174,0,0,0,5.257-2.1,10.163,10.163,0,0,0,5.257,2.1v5.346A5.262,5.262,0,0,1,167.772,24.971Zm7.886-5.622V14.823a2.6,2.6,0,0,1,0,4.525Zm-7.886-16.72a9.211,9.211,0,0,1,9.2,9.2v.731a5.2,5.2,0,0,0-2.629-.731h-.226A7.606,7.606,0,0,1,168.7,9.585l-.929-.931-.929.931a7.608,7.608,0,0,1-5.416,2.244H161.2a5.2,5.2,0,0,0-2.629.731v-.731A9.211,9.211,0,0,1,167.772,2.629Zm-7.886,12.194v4.526a2.6,2.6,0,0,1,0-4.525Zm0,0" transform="translate(-127.029 0)"/><path class="a" d="M0,322.171H26.285V288H0Zm2.629-31.542H23.657v28.914H2.629Zm0,0" transform="translate(0 -240.686)"/><path class="a" d="M32,320H47.771v2.629H32Zm0,0" transform="translate(-26.743 -267.429)"/><path class="a" d="M32,352h2.629v2.629H32Zm0,0" transform="translate(-26.743 -294.172)"/><path class="a" d="M64,352H74.514v2.629H64Zm0,0" transform="translate(-53.486 -294.172)"/><path class="a" d="M32,384H47.771v2.629H32Zm0,0" transform="translate(-26.743 -320.915)"/><path class="a" d="M32,416H47.771v2.629H32Zm0,0" transform="translate(-26.743 -347.658)"/><path class="a" d="M112,448h2.629v2.629H112Zm0,0" transform="translate(-93.6 -374.401)"/><path class="a" d="M32,448H42.514v2.629H32Zm0,0" transform="translate(-26.743 -374.401)"/><path class="a" d="M172.732,348.2l-1.858-1.858-6.186,6.186,6.186,6.186,1.858-1.859-3.014-3.014h9.97v-2.628h-9.97Zm0,0" transform="translate(-137.632 -289.445)"/><path class="a" d="M74.629,83.159a1.316,1.316,0,0,1,1.314-1.314H81.97l-3.014,3.014,1.858,1.858L87,80.53l-6.186-6.186L78.956,76.2l3.014,3.014H75.943A3.948,3.948,0,0,0,72,83.159v23.657h2.629Zm0,0" transform="translate(-60.172 -62.13)"/><path class="a" d="M343.886,107.943v16.541l-3.014-3.014-1.858,1.858,6.186,6.186,6.186-6.186-1.858-1.858-3.014,3.014V107.943A3.948,3.948,0,0,0,342.571,104H336v2.629h6.571A1.316,1.316,0,0,1,343.886,107.943Zm0,0" transform="translate(-280.801 -86.914)"/></svg>