<svg xmlns="http://www.w3.org/2000/svg" xmlns:xlink="http://www.w3.org/1999/xlink" width="81.51" height="76.075" viewBox="0 0 81.51 76.075"><defs><style>.a{fill:url(#a);}</style><linearGradient id="a" x1="1" y1="-0.258" x2="1.204" y2="1.186" gradientUnits="objectBoundingBox"><stop offset="0" stop-color="#fc6681"/><stop offset="1" stop-color="#fc6681"/></linearGradient></defs><g transform="translate(0 0)"><g transform="translate(0 0)"><path class="a" d="M77.434,52.679V22.792A6.8,6.8,0,0,0,70.642,16H10.868a6.8,6.8,0,0,0-6.792,6.792V43.17A4.08,4.08,0,0,0,0,47.245V88a4.08,4.08,0,0,0,4.075,4.075H33.962A4.08,4.08,0,0,0,38.038,88H49.423a4.075,4.075,0,0,0,3.931-5.147l-2.671-9.8h7.731V88a4.08,4.08,0,0,0,4.075,4.075H77.434A4.08,4.08,0,0,0,81.51,88V56.755A4.08,4.08,0,0,0,77.434,52.679ZM35.321,88a1.361,1.361,0,0,1-1.358,1.358H4.075A1.361,1.361,0,0,1,2.717,88V85.283h32.6Zm0-5.434H2.717V52.679h32.6Zm0-32.6H2.717V47.245a1.361,1.361,0,0,1,1.358-1.358H33.962a1.361,1.361,0,0,1,1.358,1.358ZM50.734,83.567a1.358,1.358,0,0,1-1.311,1.716H38.038V82.566H50.461Zm-12.7-3.718V73.057h9.83l1.853,6.792ZM58.415,70.34H38.038V62.189H58.415Zm0-13.585v2.717H38.038V47.245a4.08,4.08,0,0,0-4.075-4.075H6.792V22.792a4.08,4.08,0,0,1,4.075-4.075H70.642a4.08,4.08,0,0,1,4.075,4.075V52.679H62.491A4.08,4.08,0,0,0,58.415,56.755ZM78.793,88a1.361,1.361,0,0,1-1.358,1.358H62.491A1.361,1.361,0,0,1,61.132,88V85.283h17.66Zm0-5.434H61.132V62.189h17.66Zm0-23.094H61.132V56.755A1.361,1.361,0,0,1,62.491,55.4H77.434a1.361,1.361,0,0,1,1.358,1.358Z" transform="translate(0 -16)"/></g></g><g transform="translate(7.19 50.661)"><g transform="translate(0 0)"><rect class="a" width="7.685" height="2.717" transform="translate(0 5.434) rotate(-45)"/></g></g><g transform="translate(12.623 43.868)"><g transform="translate(0 0)"><rect class="a" width="23.055" height="2.717" transform="translate(0 16.302) rotate(-45)"/></g></g><g transform="translate(15.34 39.795)"><g transform="translate(0 0)"><rect class="a" width="11.527" height="2.717" transform="translate(0 8.15) rotate(-45)"/></g></g><g transform="translate(64.244 49.306)"><g transform="translate(0 0)"><rect class="a" width="9.604" height="2.717" transform="translate(0 6.791) rotate(-45)"/></g></g><g transform="translate(66.961 54.745)"><g transform="translate(0 0)"><rect class="a" width="9.604" height="2.717" transform="translate(0 6.791) rotate(-45)"/></g></g><g transform="translate(35.717 15.342)"><g transform="translate(0 0)"><rect class="a" width="11.527" height="2.717" transform="translate(0 8.15) rotate(-45)"/></g></g><g transform="translate(47.944 12.625)"><g transform="translate(0 0)"><rect class="a" width="11.527" height="2.717" transform="translate(0 8.15) rotate(-45)"/></g></g><g transform="translate(39.792 23.494)"><g transform="translate(0 0)"><rect class="a" width="7.685" height="2.717" transform="translate(0 5.434) rotate(-45)"/></g></g><g transform="translate(46.577 7.194)"><rect class="a" width="7.704" height="2.717" transform="translate(0 5.448) rotate(-45)"/></g><g transform="translate(9.509 5.434)"><rect class="a" width="2.717" height="2.717"/></g><g transform="translate(14.943 5.434)"><rect class="a" width="2.717" height="2.717"/></g><g transform="translate(20.377 5.434)"><rect class="a" width="2.717" height="2.717"/></g></svg>