<svg xmlns="http://www.w3.org/2000/svg" xmlns:xlink="http://www.w3.org/1999/xlink" width="1920" height="451" viewBox="0 0 1920 451"><defs><style>.a{fill:#fff;stroke:#707070;}.b{clip-path:url(#a);}.c{fill:url(#b);}</style><clipPath id="a"><rect class="a" width="1920" height="451" transform="translate(0 4395)"/></clipPath><linearGradient id="b" x1="0.479" y1="0.367" x2="0.065" y2="0.803" gradientUnits="objectBoundingBox"><stop offset="0" stop-color="#360018"/><stop offset="1" stop-color="#eb3b49"/></linearGradient></defs><g class="b" transform="translate(0 -4395)"><path class="c" d="M196.2,571.948,185.21,868.82l15.92-53.627-26.372,219.416,43.478,21.511-27.307,256.316,51.513-23.5,33.271,188.687,36.6,207.567,5.774,198.462,56.619-39.564-14.2,219.921,22.712,128.806-1.3,132.525,40.163-17.635,11.636,171.518-99.453,643.313,198.03-215.583,42.24,154.608-11.418,76.217,228.189-74.1,593.319-614L1373.11,1008.748l-4.64-508.074.036-396.328L1239.825,0,1091.038,59.757,908.668,80.943,397.442,62.008Z" transform="translate(2550.788 4497.69) rotate(100)"/></g></svg>