<svg xmlns="http://www.w3.org/2000/svg" xmlns:xlink="http://www.w3.org/1999/xlink" width="27" height="27" viewBox="0 0 27 27"><defs><style>.a,.c{fill:#d53934;}.a{stroke:#707070;}.b{clip-path:url(#a);}</style><clipPath id="a"><rect class="a" width="27" height="27" transform="translate(1431 733.502)"/></clipPath></defs><g class="b" transform="translate(-1431 -733.502)"><g transform="translate(1436.795 734.076)"><g transform="translate(2.318)"><path class="c" d="M18.467,0H15.68a3.713,3.713,0,0,0-3.707,3.712v9.27a.464.464,0,0,0,.464.464H21.71a.464.464,0,0,0,.464-.464V3.712A3.713,3.713,0,0,0,18.467,0Zm2.78,12.518H12.9V3.712A2.785,2.785,0,0,1,15.68.927h2.786a2.785,2.785,0,0,1,2.779,2.784Z" transform="translate(-11.974 0)"/></g><g transform="translate(2.318 12.518)"><path class="c" d="M11.974,18.474v3.014A2.907,2.907,0,0,0,14.753,24.5h4.641a2.907,2.907,0,0,0,2.779-3.014V18.474Zm9.272,3.014a1.982,1.982,0,0,1-1.852,2.086H14.753A1.982,1.982,0,0,1,12.9,21.487V19.4h8.345v2.086Z" transform="translate(-11.974 -18.474)"/></g><g transform="translate(2.782 4.173)"><path class="c" d="M15.44,6.158H13.121a.464.464,0,0,0,0,.927H15.44a.464.464,0,1,0,0-.927Z" transform="translate(-12.658 -6.158)"/></g><g transform="translate(2.782 6.027)"><path class="c" d="M15.44,8.895H13.121a.464.464,0,0,0,0,.927H15.44a.464.464,0,1,0,0-.927Z" transform="translate(-12.658 -8.895)"/></g><g transform="translate(8.809 4.173)"><path class="c" d="M24.334,6.158H22.016a.464.464,0,1,0,0,.927h2.318a.464.464,0,0,0,0-.927Z" transform="translate(-21.553 -6.158)"/></g><g transform="translate(8.809 6.027)"><path class="c" d="M24.334,8.895H22.016a.464.464,0,1,0,0,.927h2.318a.464.464,0,0,0,0-.927Z" transform="translate(-21.553 -8.895)"/></g><g transform="translate(2.782 7.882)"><path class="c" d="M15.44,11.632H13.121a.464.464,0,0,0,0,.927H15.44a.464.464,0,1,0,0-.927Z" transform="translate(-12.658 -11.632)"/></g><g transform="translate(8.809 7.882)"><path class="c" d="M24.334,11.632H22.016a.464.464,0,1,0,0,.927h2.318a.464.464,0,0,0,0-.927Z" transform="translate(-21.553 -11.632)"/></g><g transform="translate(2.782 9.736)"><path class="c" d="M15.44,14.368H13.121a.464.464,0,0,0,0,.927H15.44a.464.464,0,1,0,0-.927Z" transform="translate(-12.658 -14.368)"/></g><g transform="translate(8.809 9.736)"><path class="c" d="M24.334,14.368H22.016a.464.464,0,1,0,0,.927h2.318a.464.464,0,1,0,0-.927Z" transform="translate(-21.553 -14.368)"/></g><g transform="translate(0 9.421)"><path class="c" d="M22.925,13.9a.464.464,0,0,0-.464.464v5.026a4.605,4.605,0,0,1-4.637,4.562H14.117A4.605,4.605,0,0,1,9.48,19.392V14.367a.464.464,0,1,0-.927,0v5.026a5.533,5.533,0,0,0,5.564,5.489h3.708a5.533,5.533,0,0,0,5.564-5.489V14.367A.464.464,0,0,0,22.925,13.9Z" transform="translate(-8.553 -13.903)"/></g><g transform="translate(6.954 20.084)"><path class="c" d="M19.279,29.64a.464.464,0,0,0-.464.464v5.1a.464.464,0,1,0,.927,0V30.1A.464.464,0,0,0,19.279,29.64Z" transform="translate(-18.816 -29.64)"/></g><g transform="translate(3.245 25.499)"><path class="c" d="M21.224,37.632H13.806a.464.464,0,1,0,0,.927h7.418a.464.464,0,1,0,0-.927Z" transform="translate(-13.342 -37.632)"/></g></g></g></svg>