<svg xmlns="http://www.w3.org/2000/svg" width="201.15" height="236.803" viewBox="0 0 201.15 236.803"><defs><style>.a{fill:#2f2e41;}.b{fill:#fff;}.c{fill:#3f3d56;}.d{fill:#d53934;}</style></defs><g transform="translate(-500.957 -361.553)"><ellipse class="a" cx="11.626" cy="37.035" rx="11.626" ry="37.035" transform="matrix(-0.933, -0.36, 0.36, -0.933, 675.468, 475.395)"/><ellipse class="a" cx="74.07" cy="74.07" rx="74.07" ry="74.07" transform="translate(535.248 418.325)"/><rect class="a" width="22.502" height="40.317" transform="translate(575.405 550.427) rotate(0.16)"/><rect class="a" width="22.502" height="40.317" transform="translate(620.409 550.553) rotate(0.16)"/><ellipse class="a" cx="18.752" cy="7.032" rx="18.752" ry="7.032" transform="translate(612.769 598.356) rotate(-179.84)"/><ellipse class="a" cx="18.752" cy="7.032" rx="18.752" ry="7.032" transform="translate(657.776 597.545) rotate(-179.84)"/><ellipse class="b" cx="25.315" cy="25.315" rx="25.315" ry="25.315" transform="translate(585.931 448.333)"/><ellipse class="c" cx="8.438" cy="8.438" rx="8.438" ry="8.438" transform="translate(602.807 465.21)"/><path class="d" d="M941.558,607.281c-5.906-26.8,13.288-53.812,42.871-60.331s58.352,9.924,64.257,36.725-13.715,36.625-43.3,43.144S947.465,634.083,941.558,607.281Z" transform="translate(-403.899 -183.97)"/><ellipse class="a" cx="37.035" cy="11.626" rx="37.035" ry="11.626" transform="translate(569.774 488.576) rotate(135)"/><path class="b" d="M933.508,712.882c-.021,7.25,18.605,21.617,39.318,21.675s40.19-20.3,40.211-27.547-19.425,1.352-40.137,1.294S933.536,705.632,933.508,712.882Z" transform="translate(-360.651 -193.867)"/></g></svg>