<svg xmlns="http://www.w3.org/2000/svg" xmlns:xlink="http://www.w3.org/1999/xlink" width="81.292" height="81.292" viewBox="0 0 81.292 81.292"><defs><style>.a{fill:url(#a);}</style><linearGradient id="a" x1="-0.486" y1="-1.049" x2="1.462" y2="25.014" gradientUnits="objectBoundingBox"><stop offset="0" stop-color="#88cb88"/><stop offset="1" stop-color="#43b943"/></linearGradient></defs><g transform="translate(27.097 6.774)"><rect class="a" width="27.097" height="2.71"/></g><g transform="translate(17.613 27.097)"><path class="a" d="M153.453,183.71a4.748,4.748,0,0,0-4.742-4.742H146V160h-2.71v18.968H139.9A4.735,4.735,0,0,0,136.6,187.1a4.686,4.686,0,0,0-.712,5.871,4.738,4.738,0,0,0-2.754,4.29,4.687,4.687,0,0,0,.476,2.032H122.968a12.188,12.188,0,0,0-5.242-10.013,8.143,8.143,0,0,0,5.242-7.6,1.354,1.354,0,0,0-1.355-1.355H110.774V166.774h-2.71v13.549A4.069,4.069,0,0,0,104,184.388v29.807h2.71V184.388a1.356,1.356,0,0,1,1.355-1.355h12.022a5.428,5.428,0,0,1-5.247,4.065h-4.065a1.355,1.355,0,1,0,0,2.71,9.5,9.5,0,0,1,9.484,9.484v1.355A1.354,1.354,0,0,0,121.613,202h7.928a4.687,4.687,0,0,0-.476,2.032,4.748,4.748,0,0,0,4.742,4.742v5.419h2.71v-5.419h6.1a4.748,4.748,0,0,0,4.742-4.742,4.684,4.684,0,0,0-.486-2.052,4.706,4.706,0,0,0,3.83-7.207,4.718,4.718,0,0,0,1.32-7.677A4.723,4.723,0,0,0,153.453,183.71Zm-10.839,22.355h-8.807a2.032,2.032,0,0,1,0-4.065h8.807a2.032,2.032,0,1,1,0,4.065Zm4.065-6.774h-8.807a2.032,2.032,0,0,1,0-4.065h8.807a2.032,2.032,0,1,1,0,4.065Zm2.032-6.774H139.9a2.032,2.032,0,0,1,0-4.065h8.807a2.032,2.032,0,1,1,0,4.065Zm0-6.774H139.9a2.032,2.032,0,0,1,0-4.065h8.807a2.032,2.032,0,1,1,0,4.065Z" transform="translate(-104 -160)"/></g><g transform="translate(5.419 12.194)"><path class="a" d="M46.9,77.052a1.354,1.354,0,0,0-.532-.983L44.957,75a3.7,3.7,0,0,0-7.329.677,7.864,7.864,0,0,1-3.043-1.229l-.472-.319A1.355,1.355,0,0,0,32,75.252v1.111a7.826,7.826,0,0,0,1.405,4.5l-1.013,1.025a1.355,1.355,0,0,0,.963,2.307H39.92a5.129,5.129,0,0,0,5.074-4.557L46.512,78.1A1.356,1.356,0,0,0,46.9,77.052Zm-4.19,1.041a1.353,1.353,0,0,0-.392.953,2.421,2.421,0,0,1-2.4,2.438H36.473a1.357,1.357,0,0,0-.279-1.494,5.182,5.182,0,0,1-1.314-2.315,10.538,10.538,0,0,0,4.1.828,1.354,1.354,0,0,0,1.355-1.355V75.726a.99.99,0,1,1,1.979,0,1.356,1.356,0,0,0,.536,1.08l.646.489Z" transform="translate(-32 -72)"/></g><g transform="translate(36.582 20.323)"><path class="a" d="M224.129,122.71V120h-4.065a1.354,1.354,0,0,0-1.355,1.355v4.065H216v2.71h2.71v5.419h2.71v-5.419h2.71v-2.71h-2.71v-2.71Z" transform="translate(-216 -120)"/></g><g transform="translate(28.452 14.904)"><path class="a" d="M188.323,88H172.065A4.069,4.069,0,0,0,168,92.065v16.258a4.069,4.069,0,0,0,4.065,4.065h16.258a4.069,4.069,0,0,0,4.065-4.065V92.065A4.069,4.069,0,0,0,188.323,88Zm1.355,20.323a1.356,1.356,0,0,1-1.355,1.355H172.065a1.356,1.356,0,0,1-1.355-1.355V92.065a1.356,1.356,0,0,1,1.355-1.355h16.258a1.356,1.356,0,0,1,1.355,1.355Z" transform="translate(-168 -88)"/></g><g transform="translate(0 6.774)"><path class="a" d="M20.323,40H4.065A4.069,4.069,0,0,0,0,44.065V60.323a4.069,4.069,0,0,0,4.065,4.065H20.323a4.069,4.069,0,0,0,4.065-4.065V44.065A4.069,4.069,0,0,0,20.323,40Zm1.355,20.323a1.356,1.356,0,0,1-1.355,1.355H4.065A1.356,1.356,0,0,1,2.71,60.323V44.065A1.356,1.356,0,0,1,4.065,42.71H20.323a1.356,1.356,0,0,1,1.355,1.355Z" transform="translate(0 -40)"/></g><g transform="translate(56.905)"><path class="a" d="M356.323,0H340.065A4.069,4.069,0,0,0,336,4.065V20.323a4.069,4.069,0,0,0,4.065,4.065h16.258a4.069,4.069,0,0,0,4.065-4.065V4.065A4.069,4.069,0,0,0,356.323,0Zm1.355,20.323a1.356,1.356,0,0,1-1.355,1.355H340.065a1.356,1.356,0,0,1-1.355-1.355V13.549h2.847a6.774,6.774,0,0,0,13.275,0h2.847Zm-13.549-8.129a4.065,4.065,0,1,1,4.065,4.065A4.069,4.069,0,0,1,344.129,12.194Zm13.549-1.355h-2.847a6.774,6.774,0,0,0-13.275,0H338.71V4.065a1.356,1.356,0,0,1,1.355-1.355h16.258a1.356,1.356,0,0,1,1.355,1.355Z" transform="translate(-336)"/></g><g transform="translate(39.291 55.55)"><rect class="a" width="2.71" height="2.71"/></g></svg>