<svg xmlns="http://www.w3.org/2000/svg" xmlns:xlink="http://www.w3.org/1999/xlink" width="76.943" height="76.942" viewBox="0 0 76.943 76.942"><defs><style>.a{fill:url(#a);}</style><linearGradient id="a" x1="0.117" y1="-3.025" x2="1.124" y2="3.743" gradientUnits="objectBoundingBox"><stop offset="0" stop-color="#fc6681"/><stop offset="1" stop-color="#fb294f"/></linearGradient></defs><path class="a" d="M119.694,297.282a1.282,1.282,0,0,0-2.565,0v1.282h-3.847a1.282,1.282,0,1,0,0,2.565h3.847v1.282a1.282,1.282,0,1,0,2.565,0v-1.282h30.777a1.282,1.282,0,0,0,0-2.565H119.694Zm0,0" transform="translate(-94.047 -248.552)"/><path class="a" d="M208.608,200.206A1.283,1.283,0,0,0,208,201.3v10.259a1.282,1.282,0,0,0,1.855,1.154l10.259-5.129a1.282,1.282,0,0,0,0-2.3l-10.259-5.13A1.282,1.282,0,0,0,208.608,200.206Zm1.957,3.166,6.109,3.054-6.109,3.054Zm0,0" transform="translate(-174.658 -167.955)"/><path class="a" d="M118.412,202.565a1.282,1.282,0,0,0,0-2.565,3.847,3.847,0,0,0-3.847,3.847v1.282h-1.282a1.282,1.282,0,1,0,0,2.565h1.282v3.847a1.282,1.282,0,0,0,2.565,0v-3.847h1.282a1.282,1.282,0,1,0,0-2.565h-1.282v-1.282A1.282,1.282,0,0,1,118.412,202.565Zm0,0" transform="translate(-94.047 -167.941)"/><path class="a" d="M328,231.694a1.282,1.282,0,1,0,2.565,0v-6.412a1.282,1.282,0,0,0-2.565,0Zm0,0" transform="translate(-275.423 -188.094)"/><path class="a" d="M330.565,201.282A1.282,1.282,0,1,1,329.282,200,1.282,1.282,0,0,1,330.565,201.282Zm0,0" transform="translate(-275.423 -167.941)"/><path class="a" d="M77.129,160H73.282A1.282,1.282,0,0,0,72,161.282v30.777a1.282,1.282,0,0,0,1.282,1.282h51.295a1.282,1.282,0,0,0,1.282-1.282V166.412a1.282,1.282,0,0,0-2.565,0v24.365H74.565V162.565h2.565a1.282,1.282,0,1,0,0-2.565Zm0,0" transform="translate(-60.459 -134.353)"/><path class="a" d="M226.259,162.565a1.282,1.282,0,0,0,0-2.565h-8.977a1.282,1.282,0,1,0,0,2.565Zm0,0" transform="translate(-181.376 -134.353)"/><path class="a" d="M102.836,165.13a1.282,1.282,0,0,0-1.282,1.282v28.212a1.282,1.282,0,0,1-1.282,1.282H43.847a1.282,1.282,0,0,1-1.282-1.282V161.282a1.282,1.282,0,0,0-2.565,0v33.342a3.847,3.847,0,0,0,3.847,3.847H61.8v5.13H54.106a3.847,3.847,0,1,0,0,7.694H90.013a1.282,1.282,0,0,0,0-2.565H54.106a1.282,1.282,0,0,1,0-2.565H90.013a1.282,1.282,0,1,0,0-2.565H82.318v-5.13h17.953a3.847,3.847,0,0,0,3.847-3.847V166.412A1.282,1.282,0,0,0,102.836,165.13ZM79.754,203.6H64.365v-5.13H79.754Zm0,0" transform="translate(-33.588 -134.353)"/><path class="a" d="M70.531,0H55.142A6.419,6.419,0,0,0,48.73,6.412V20.518H35.67a3.8,3.8,0,0,0,.236-1.282V3.847A3.847,3.847,0,0,0,32.059,0H3.847A3.847,3.847,0,0,0,0,3.847V19.236a3.847,3.847,0,0,0,3.847,3.847H18.7l9.883,9.883a1.282,1.282,0,0,0,2.189-.907V23.083H48.859a6.423,6.423,0,0,0,6.284,5.129H70.531A6.419,6.419,0,0,0,76.942,21.8V6.412A6.419,6.419,0,0,0,70.531,0ZM30.777,20.518H29.495A1.282,1.282,0,0,0,28.212,21.8v7.163l-8.07-8.07a1.283,1.283,0,0,0-.907-.376H3.847a1.282,1.282,0,0,1-1.282-1.282V3.847A1.282,1.282,0,0,1,3.847,2.565H32.059a1.282,1.282,0,0,1,1.282,1.282V19.236a1.282,1.282,0,0,1-1.282,1.282Zm43.6,1.282a3.847,3.847,0,0,1-3.847,3.847H55.142A3.847,3.847,0,0,1,51.295,21.8V6.412a3.847,3.847,0,0,1,3.847-3.847H70.531a3.847,3.847,0,0,1,3.847,3.847Zm0,0" transform="translate(0)"/><path class="a" d="M363.541,53.129a1.282,1.282,0,0,0-1.282,1.282,3.847,3.847,0,1,1-3.847-3.847,1.282,1.282,0,1,0,0-2.565,6.412,6.412,0,1,0,6.412,6.412A1.282,1.282,0,0,0,363.541,53.129Zm0,0" transform="translate(-295.576 -40.306)"/><path class="a" d="M86.106,32H73.282a1.282,1.282,0,1,0,0,2.565H86.106a1.282,1.282,0,1,0,0-2.565Zm0,0" transform="translate(-60.459 -26.871)"/><path class="a" d="M41.282,66.565H51.541a1.282,1.282,0,1,0,0-2.565H41.282a1.282,1.282,0,1,0,0,2.565Zm0,0" transform="translate(-33.588 -53.741)"/><path class="a" d="M92.824,96H81.282a1.282,1.282,0,1,0,0,2.565H92.824a1.282,1.282,0,0,0,0-2.565Zm0,0" transform="translate(-67.176 -80.612)"/><path class="a" d="M42.565,96H41.282a1.282,1.282,0,1,0,0,2.565h1.282a1.282,1.282,0,1,0,0-2.565Zm0,0" transform="translate(-33.588 -80.612)"/><path class="a" d="M139.847,64h-2.565a1.282,1.282,0,1,0,0,2.565h2.565a1.282,1.282,0,0,0,0-2.565Zm0,0" transform="translate(-114.2 -53.741)"/></svg>