<svg xmlns="http://www.w3.org/2000/svg" xmlns:xlink="http://www.w3.org/1999/xlink" width="77.118" height="75.143" viewBox="0 0 77.118 75.143"><defs><style>.a{fill:url(#a);}</style><linearGradient id="a" x1="0.221" y1="0.118" x2="0.646" y2="1.255" gradientUnits="objectBoundingBox"><stop offset="0" stop-color="#fe7ebb"/><stop offset="1" stop-color="#fe3595"/></linearGradient></defs><path class="a" d="M129.988,90.592a3.77,3.77,0,1,0-3.009-1.5l-6.187,8.646a3.755,3.755,0,0,0-3.736.823l-4.124-2.34a3.766,3.766,0,1,0-7.362,0l-4.124,2.34a3.76,3.76,0,1,0,1.118,1.963l4.124-2.34a3.756,3.756,0,0,0,5.126,0l4.124,2.34a3.766,3.766,0,1,0,6.69-1.47l6.187-8.646A3.754,3.754,0,0,0,129.988,90.592Zm0-5.272a1.506,1.506,0,1,1-1.506,1.506A1.508,1.508,0,0,1,129.988,85.32Zm-31.1,17.5a1.506,1.506,0,1,1,1.506-1.506A1.508,1.508,0,0,1,98.883,102.818Zm10.368-5.887a1.506,1.506,0,1,1,1.506-1.506A1.508,1.508,0,0,1,109.251,96.931Zm10.368,5.887a1.506,1.506,0,1,1,1.506-1.506A1.508,1.508,0,0,1,119.619,102.818Z" transform="translate(-80.791 -71.538)"/><path class="a" d="M63.079,90.853H3.2a.937.937,0,0,1-.936-.936V43.311a.937.937,0,0,1,.936-.936H8.521a1.13,1.13,0,0,0,0-2.259H3.2a3.2,3.2,0,0,0-3.2,3.2V89.916a3.2,3.2,0,0,0,3.2,3.2h7.789V95.6a2.571,2.571,0,0,0,2.569,2.569H24.861l-5.323,10.393a1.13,1.13,0,1,0,2.011,1.03L27.4,98.167h12.49l5.851,11.423a1.13,1.13,0,1,0,2.011-1.03L42.427,98.167H53.735A2.571,2.571,0,0,0,56.3,95.6V93.112h6.776a1.13,1.13,0,0,0,0-2.259ZM54.044,95.6a.31.31,0,0,1-.309.309H13.553a.31.31,0,0,1-.309-.309V93.112h40.8Z" transform="translate(0 -35.061)"/><path class="a" d="M80.2,13.872h51.053a.937.937,0,0,1,.936.936V25.549a1.13,1.13,0,0,0,2.259,0V14.808a3.2,3.2,0,0,0-3.2-3.2H107.075V9.392a2.837,2.837,0,0,0-2.834-2.834H97.37a2.837,2.837,0,0,0-2.834,2.834v2.22H80.2a1.13,1.13,0,1,0,0,2.259Zm16.594-4.48a.575.575,0,0,1,.575-.575h6.871a.576.576,0,0,1,.575.575v2.22H96.8V9.392Z" transform="translate(-67.161 -6.558)"/><path class="a" d="M98.532,267.576a1.13,1.13,0,0,0-1.13,1.13v9.982a1.13,1.13,0,0,0,1.13,1.13h4.583a1.13,1.13,0,0,0,1.13-1.13v-9.982a1.13,1.13,0,0,0-1.13-1.13Zm3.453,9.982H99.661v-7.723h2.324Z" transform="translate(-82.731 -228.261)"/><path class="a" d="M167.367,229.248a1.13,1.13,0,0,0-1.13,1.13v15.755a1.13,1.13,0,0,0,1.13,1.13h4.583a1.13,1.13,0,0,0,1.13-1.13V230.378a1.13,1.13,0,0,0-1.13-1.13ZM170.82,245H168.5v-13.5h2.324Z" transform="translate(-141.198 -195.706)"/><path class="a" d="M236.2,267.576a1.13,1.13,0,0,0-1.13,1.13v9.982a1.13,1.13,0,0,0,1.13,1.13h4.583a1.13,1.13,0,0,0,1.13-1.13v-9.982a1.13,1.13,0,0,0-1.13-1.13Zm3.453,9.982h-2.324v-7.723h2.324Z" transform="translate(-199.666 -228.261)"/><path class="a" d="M305.039,311.832a1.13,1.13,0,0,0-1.13,1.13v3.316a1.13,1.13,0,0,0,1.13,1.13h4.583a1.13,1.13,0,0,0,0-2.259h-3.453v-2.187A1.13,1.13,0,0,0,305.039,311.832Z" transform="translate(-258.134 -265.851)"/><path class="a" d="M327.561,180.555l-6.481-11.225a14.772,14.772,0,1,0-14.607,4.169,14.845,14.845,0,0,0,3.845.509,14.58,14.58,0,0,0,3.325-.384l6.479,11.225a4.294,4.294,0,1,0,7.438-4.294Zm-20.5-9.239a12.506,12.506,0,1,1,9.489-1.249A12.425,12.425,0,0,1,307.058,171.316Zm17.8,13.148a2.037,2.037,0,0,1-2.78-.744l-6.234-10.8a14.827,14.827,0,0,0,3.522-2.036l6.236,10.8a2.033,2.033,0,0,1-.744,2.78Z" transform="translate(-251.019 -123.701)"/><path class="a" d="M343.273,185.154a10.691,10.691,0,0,0-.535-7.744,1.13,1.13,0,1,0-2.044.963,8.461,8.461,0,1,1-2.551-3.152,1.13,1.13,0,1,0,1.363-1.8,10.728,10.728,0,1,0,3.766,11.735Z" transform="translate(-273.755 -146.437)"/></svg>