<svg xmlns="http://www.w3.org/2000/svg" xmlns:xlink="http://www.w3.org/1999/xlink" width="79.941" height="71.517" viewBox="0 0 79.941 71.517"><defs><style>.a{fill:url(#a);}</style><linearGradient id="a" x1="-0.373" y1="-0.507" x2="0.5" y2="1" gradientUnits="objectBoundingBox"><stop offset="0" stop-color="#ffd037"/><stop offset="1" stop-color="#eab302"/><stop offset="1" stop-color="#e9b200"/></linearGradient></defs><g transform="translate(0 0)"><g transform="translate(0 0)"><path class="a" d="M68.766,19.6H11.175C5.776,19.6,0,22.54,0,30.775V69.387c0,8.235,5.776,11.175,11.175,11.175H32.492v7.117H28.951a1.719,1.719,0,1,0,0,3.438H51.643a1.719,1.719,0,1,0,0-3.438H47.449V80.561H68.766c8.235,0,11.175-5.776,11.175-11.175V30.775C79.941,22.54,74.164,19.6,68.766,19.6ZM44.01,87.679H35.93V80.561h8.08v7.117ZM76.5,69.387c0,2.321-.756,7.736-7.736,7.736H11.175c-2.321,0-7.736-.756-7.736-7.736V66.928H76.5Zm0-5.88H3.438V30.843c0-6.98,5.415-7.736,7.736-7.736H68.766c2.321,0,7.736.756,7.736,7.736Z" transform="translate(0 -19.6)"/></g></g><g transform="translate(11.838 7.769)"><path class="a" d="M111.089,56.1a1.719,1.719,0,0,0-2.407.342l0,0h.086L95.942,73.635l-6.017-7.822a1.711,1.711,0,0,0-2.647-.086l-9.8,11.14L70.292,64.592a1.713,1.713,0,0,0-2.94-.017L55.49,83.743a1.719,1.719,0,1,0,2.923,1.719L68.727,68.649,75.6,80.494a1.719,1.719,0,0,0,2.768.275L88.377,69.578l6.137,7.977a1.994,1.994,0,0,0,1.375.67,1.719,1.719,0,0,0,1.358-.688l14.183-19.031A1.719,1.719,0,0,0,111.089,56.1Z" transform="translate(-55.087 -55.754)"/></g></svg>