<svg xmlns="http://www.w3.org/2000/svg" width="1027.496" height="696.119" viewBox="0 0 1027.496 696.119"><defs><style>.a,.e,.f{fill:#d53934;}.a{opacity:0.4;}.b{fill:#3f3d56;}.c{fill:#f2f2f2;}.d{fill:#2f2e41;}.f{opacity:0.3;}.g{fill:#fff;}</style></defs><g transform="translate(0 0)"><circle class="a" cx="76.752" cy="76.752" r="76.752" transform="translate(619.496 278.95)"/><rect class="b" width="428" height="116" transform="translate(270 461.902)"/><path class="c" d="M756.839,276.477l-17.09,8.088,15.125-11.31a85.346,85.346,0,0,0-8.258-10.867L672.5,280.81l66.948-25.538a85.334,85.334,0,0,0-9.722-7.41L616.789,266.052a84.639,84.639,0,0,0-18.537,52.82h170a84.594,84.594,0,0,0-11.413-42.4Z" transform="translate(-86.252 -101.971)"/><path class="c" d="M770.375,152.166a495.973,495.973,0,0,0-218.123-50.2c-153.83,0-291.361,69.753-382.71,179.349C325.968,247.045,598.319,187.714,770.375,152.166Z" transform="translate(-86.252 -101.971)"/><rect class="d" width="1020" height="2" transform="translate(0 693.902)"/><path class="b" d="M682.117,318.873l-57.865-85.951s87.631,30.593,77.686,85.951Z" transform="translate(-86.252 -101.971)"/><path class="e" d="M684.388,318.873l57.864-85.951s-87.631,30.593-77.686,85.951Z" transform="translate(-86.252 -101.971)"/><path class="d" d="M784.752,797.873h-429v-640h429Zm-427-2h425v-636h-425Z" transform="translate(-86.252 -101.971)"/><rect class="d" width="427" height="2" transform="translate(271 71.083)"/><circle class="e" cx="4" cy="4" r="4" transform="translate(278 59.902)"/><circle class="e" cx="4" cy="4" r="4" transform="translate(289 59.902)"/><circle class="e" cx="4" cy="4" r="4" transform="translate(300 59.902)"/><rect class="e" width="18" height="10" transform="translate(286 84.902)"/><rect class="e" width="88" height="10" transform="translate(286 163.902)"/><rect class="c" width="88" height="10" transform="translate(687 94.901) rotate(180)"/><rect class="c" width="148" height="6" transform="translate(286 180.902)"/><rect class="c" width="140" height="6" transform="translate(286 193.902)"/><rect class="c" width="102" height="6" transform="translate(286 206.902)"/><rect class="c" width="58" height="6" transform="translate(320 384.902)"/><rect class="c" width="54.865" height="6" transform="translate(320 397.902)"/><rect class="c" width="39.973" height="6" transform="translate(320 410.902)"/><rect class="c" width="58" height="6" transform="translate(455 384.902)"/><rect class="c" width="54.865" height="6" transform="translate(455 397.902)"/><rect class="c" width="39.973" height="6" transform="translate(455 410.902)"/><rect class="c" width="58" height="6" transform="translate(595 384.902)"/><rect class="c" width="54.865" height="6" transform="translate(595 397.902)"/><rect class="c" width="39.973" height="6" transform="translate(595 410.902)"/><rect class="e" width="88" height="10" transform="translate(410 611.902)"/><rect class="c" width="148" height="6" transform="translate(410 628.902)"/><rect class="c" width="140" height="6" transform="translate(410 641.902)"/><rect class="c" width="102" height="6" transform="translate(410 654.902)"/><rect class="f" width="348" height="2" transform="translate(312.5 271.902)"/><rect class="f" width="74" height="66" transform="translate(312 306.902)"/><rect class="b" width="74" height="66" transform="translate(447 306.902)"/><rect class="b" width="74" height="66" transform="translate(587 306.902)"/><path class="e" d="M560.611,474.6l-.976-.019c.021-1.081.631-26.561,10.662-33.6l.561.8C561.231,448.53,560.615,474.335,560.611,474.6Z" transform="translate(-86.252 -101.971)"/><circle class="e" cx="4.881" cy="4.881" r="4.881" transform="translate(484.325 328.917)"/><path class="e" d="M574.471,453a15.2,15.2,0,0,1-7.842.339,13.85,13.85,0,0,1,14.24-4.884,15.2,15.2,0,0,1-6.4,4.546Z" transform="translate(-86.252 -101.971)"/><path class="e" d="M700.611,474.6l-.976-.019c.021-1.081.631-26.561,10.662-33.6l.561.8C701.231,448.53,700.615,474.335,700.611,474.6Z" transform="translate(-86.252 -101.971)"/><circle class="e" cx="4.881" cy="4.881" r="4.881" transform="translate(624.325 328.917)"/><path class="e" d="M714.471,453a15.2,15.2,0,0,1-7.842.339,13.85,13.85,0,0,1,14.24-4.884A15.2,15.2,0,0,1,714.471,453Z" transform="translate(-86.252 -101.971)"/><rect class="e" width="88" height="10" transform="translate(286 498.902)"/><rect class="c" width="148" height="6" transform="translate(286 515.902)"/><rect class="c" width="140" height="6" transform="translate(286 528.902)"/><rect class="c" width="102" height="6" transform="translate(286 541.902)"/><circle class="a" cx="31.248" cy="31.248" r="31.248" transform="translate(580.504 481.454)"/><circle class="a" cx="21.92" cy="21.92" r="21.92" transform="translate(532 505.706)"/><circle class="d" cx="79" cy="79" r="79" transform="translate(88.5 503.402)"/><rect class="d" width="24" height="43" transform="translate(131.5 644.402)"/><rect class="d" width="24" height="43" transform="translate(179.5 644.402)"/><ellipse class="d" cx="20" cy="7.5" rx="20" ry="7.5" transform="translate(131.5 680.402)"/><ellipse class="d" cx="20" cy="7.5" rx="20" ry="7.5" transform="translate(179.5 679.402)"/><circle class="g" cx="27" cy="27" r="27" transform="translate(142.5 535.402)"/><circle class="b" cx="9" cy="9" r="9" transform="translate(160.5 541.402)"/><path class="e" d="M177.119,610.905c-6.379-28.568,14.012-57.434,45.544-64.475s62.265,10.41,68.644,38.978-14.519,39.1-46.051,46.145S183.5,639.472,177.119,610.905Z" transform="translate(-86.252 -101.971)"/><ellipse class="d" cx="39.5" cy="12.4" rx="39.5" ry="12.4" transform="translate(199.383 525.582) rotate(-65.077)"/><ellipse class="d" cx="12.4" cy="39.5" rx="12.4" ry="39.5" transform="translate(52.839 489.876) rotate(-27.893)"/><ellipse class="d" cx="12.4" cy="39.5" rx="12.4" ry="39.5" transform="translate(794.224 491.259) rotate(-21.078)"/><circle class="d" cx="79" cy="79" r="79" transform="translate(814.19 504.104)"/><rect class="d" width="24" height="43" transform="translate(929.481 687.998) rotate(179.84)"/><rect class="d" width="24" height="43" transform="translate(881.48 688.133) rotate(179.84)"/><ellipse class="d" cx="20" cy="7.5" rx="20" ry="7.5" transform="translate(889.467 681.118) rotate(-0.16)"/><ellipse class="d" cx="20" cy="7.5" rx="20" ry="7.5" transform="translate(841.464 680.253) rotate(-0.16)"/><circle class="g" cx="27" cy="27" r="27" transform="translate(864.134 536.109)"/><circle class="b" cx="9" cy="9" r="9" transform="translate(882.134 554.109)"/><path class="e" d="M1055.87,611.392c6.3-28.585-14.173-57.394-45.724-64.347s-62.236,10.584-68.534,39.17,14.628,39.063,46.18,46.016S1049.57,639.978,1055.87,611.392Z" transform="translate(-86.252 -101.971)"/><ellipse class="d" cx="39.5" cy="12.4" rx="39.5" ry="12.4" transform="translate(941.078 552.031) rotate(-25.535)"/><path class="g" d="M1018.33,713.466c.022,7.732-19.844,23.056-41.935,23.117s-42.865-21.648-42.887-29.38,20.717,1.442,42.809,1.38S1018.3,705.734,1018.33,713.466Z" transform="translate(-86.252 -101.971)"/><circle class="a" cx="110.248" cy="110.248" r="110.248" transform="translate(807 358.454)"/><circle class="d" cx="79" cy="79" r="79" transform="translate(111.405 269.59)"/><rect class="d" width="24" height="43" transform="translate(143.939 403.187) rotate(10.261)"/><rect class="d" width="24" height="43" transform="translate(191.171 411.738) rotate(10.261)"/><ellipse class="d" cx="7.5" cy="20" rx="7.5" ry="20" transform="matrix(0.646, -0.763, 0.763, 0.646, 179.327, 454.301)"/><ellipse class="d" cx="7.5" cy="20" rx="7.5" ry="20" transform="matrix(0.646, -0.763, 0.763, 0.646, 133.079, 445.929)"/><circle class="g" cx="27" cy="27" r="27" transform="translate(168.936 302.266)"/><circle class="b" cx="9" cy="9" r="9" transform="translate(198.032 310.588)"/><path class="e" d="M214.337,364.617c-1.188-29.247,24.019-54.019,56.3-55.331s59.415,21.335,60.6,50.582-21.252,35.892-53.534,37.2S215.525,393.864,214.337,364.617Z" transform="translate(-86.252 -101.971)"/><ellipse class="d" cx="39.5" cy="12.4" rx="39.5" ry="12.4" transform="matrix(0.975, -0.223, 0.223, 0.975, 222.077, 330.935)"/><ellipse class="d" cx="39.5" cy="12.4" rx="39.5" ry="12.4" transform="matrix(0.975, -0.223, 0.223, 0.975, 67.003, 356.724)"/><path class="g" d="M254.96,481.694a18,18,0,1,0,35.424,6.413c1.771-9.782-5.792-13.244-15.575-15.014S256.73,471.912,254.96,481.694Z" transform="translate(-86.252 -101.971)"/><rect class="b" width="74" height="66" transform="translate(305.536 263.166) rotate(16.689)"/><path class="e" d="M399.12,435.948l-.93-.3c.331-1.03,8.232-25.261,19.863-29.127l.308.926C407.2,411.159,399.2,435.7,399.12,435.948Z" transform="translate(-86.252 -101.971)"/><circle class="e" cx="4.881" cy="4.881" r="4.881" transform="translate(333.359 296.169)"/><path class="e" d="M418.6,419.247a15.2,15.2,0,0,1-7.608-1.928,13.85,13.85,0,0,1,15.043-.589,15.2,15.2,0,0,1-7.434,2.517Z" transform="translate(-86.252 -101.971)"/></g></svg>