<svg xmlns="http://www.w3.org/2000/svg" width="69.016" height="81.248" viewBox="0 0 69.016 81.248"><defs><style>.a{fill:#2f2e41;}.b{fill:#fff;}.c{fill:#3f3d56;}.d{fill:#d53934;}</style></defs><g transform="translate(-500.957 -361.553)"><ellipse class="a" cx="3.989" cy="12.707" rx="3.989" ry="12.707" transform="matrix(-0.933, -0.36, 0.36, -0.933, 560.833, 400.613)"/><ellipse class="a" cx="25.414" cy="25.414" rx="25.414" ry="25.414" transform="translate(512.723 381.032)"/><rect class="a" width="7.721" height="13.833" transform="translate(526.5 426.357) rotate(0.16)"/><rect class="a" width="7.721" height="13.833" transform="translate(541.942 426.4) rotate(0.16)"/><ellipse class="a" cx="6.434" cy="2.413" rx="6.434" ry="2.413" transform="translate(539.32 442.802) rotate(-179.84)"/><ellipse class="a" cx="6.434" cy="2.413" rx="6.434" ry="2.413" transform="translate(554.763 442.523) rotate(-179.84)"/><ellipse class="b" cx="8.686" cy="8.686" rx="8.686" ry="8.686" transform="translate(530.112 391.328)"/><ellipse class="c" cx="2.895" cy="2.895" rx="2.895" ry="2.895" transform="translate(535.902 397.118)"/><path class="d" d="M940.857,566.713c-2.026-9.2,4.559-18.463,14.709-20.7s20.021,3.4,22.047,12.6-4.706,12.566-14.856,14.8S942.884,575.909,940.857,566.713Z" transform="translate(-427.307 -183.97)"/><ellipse class="a" cx="12.707" cy="3.989" rx="12.707" ry="3.989" transform="translate(524.569 405.136) rotate(135)"/><path class="b" d="M933.508,707.115c-.007,2.487,6.384,7.417,13.49,7.437s13.789-6.964,13.8-9.451-6.665.464-13.771.444S933.517,704.628,933.508,707.115Z" transform="translate(-407.881 -291.536)"/></g></svg>