<svg xmlns="http://www.w3.org/2000/svg" width="17.907" height="14.162" viewBox="0 0 17.907 14.162"><defs><style>.a{fill:#d53934;}</style></defs><g transform="translate(0 0)"><path class="a" d="M17.907,1.676a7.492,7.492,0,0,1-2.109.563A3.61,3.61,0,0,0,17.413.261a7.529,7.529,0,0,1-2.334.868A3.71,3.71,0,0,0,12.4,0,3.626,3.626,0,0,0,8.724,3.576a3.5,3.5,0,0,0,.1.815A10.526,10.526,0,0,1,1.248.654a3.478,3.478,0,0,0-.5,1.8A3.551,3.551,0,0,0,2.385,5.428,3.75,3.75,0,0,1,.721,4.979v.045A3.606,3.606,0,0,0,3.667,8.53a3.816,3.816,0,0,1-.968.125,3.619,3.619,0,0,1-.692-.066,3.664,3.664,0,0,0,3.431,2.484A7.5,7.5,0,0,1,.876,12.6,8.017,8.017,0,0,1,0,12.553a10.589,10.589,0,0,0,5.631,1.609A10.236,10.236,0,0,0,16.082,3.986l-.012-.463A7.233,7.233,0,0,0,17.907,1.676Z" transform="translate(0 0)"/></g></svg>